<mxGraphModel><root><mxCell id="0" /><mxCell id="1" parent="0" /><mxCell id="reader0" value="GadgetIsmrmrdAcquisitionMessageReader&#10;(gadgetron_mricore)" style="fillColor=#d5e8d4;fontColor=#000000;" parent="1" vertex="1"><mxGeometry y="0" width="800" height="40" as="geometry" /></mxCell><mxCell id="reader1" value="GadgetIsmrmrdWaveformMessageReader&#10;(gadgetron_mricore)" style="fillColor=#d5e8d4;fontColor=#000000;" parent="1" vertex="1"><mxGeometry y="60" width="800" height="40" as="geometry" /></mxCell><mxCell id="gadget0" value="RemoveROOversamplingGadget&#10;(gadgetron_mricore)" parent="1" vertex="1" style="fillColor=#fff2cc;fontColor=#000000;align=center;"><mxGeometry y="120" height="40" width="800" as="geometry" /></mxCell><mxCell id="arrow1" style="edgeStyle=orthogonalEdgeStyle;rounded=0;orthogonalLoop=1;jettySize=auto;html=1;exitX=0.5;exitY=1;exitDx=0;exitDy=0;entryX=0.5;entryY=0;entryDx=0;entryDy=0;" parent="1" source="gadget0" target="gadget1" edge="1"><mxGeometry relative="1" as="geometry" /></mxCell><mxCell id="gadget1" value="AcquisitionAccumulateTriggerGadget&#10;(gadgetron_mricore)" parent="1" vertex="1" style="fillColor=#fff2cc;fontColor=#000000;align=left;spacingLeft=5;"><mxGeometry y="180" height="40" width="800" as="geometry" /></mxCell><mxCell id="gadget1property0" value="trigger_dimension: repetition" style="fillColor=#ffffff;fontColor=#000000;align=left;spacingLeft=5;" parent="gadget1" vertex="1"><mxGeometry x="400.0" y="0" width="400.0" height="20" as="geometry" /></mxCell><mxCell id="gadget1property1" value="sorting_dimension: slice" style="fillColor=#ffffff;fontColor=#000000;align=left;spacingLeft=5;" parent="gadget1" vertex="1"><mxGeometry x="400.0" y="20" width="400.0" height="20" as="geometry" /></mxCell><mxCell id="arrow2" style="edgeStyle=orthogonalEdgeStyle;rounded=0;orthogonalLoop=1;jettySize=auto;html=1;exitX=0.5;exitY=1;exitDx=0;exitDy=0;entryX=0.5;entryY=0;entryDx=0;entryDy=0;" parent="1" source="gadget1" target="gadget2" edge="1"><mxGeometry relative="1" as="geometry" /></mxCell><mxCell id="gadget2" value="BucketToBufferGadget&#10;(gadgetron_mricore)" parent="1" vertex="1" style="fillColor=#fff2cc;fontColor=#000000;align=left;spacingLeft=5;"><mxGeometry y="240" height="60" width="800" as="geometry" /></mxCell><mxCell id="gadget2property0" value="N_dimension: None" style="fillColor=#ffffff;fontColor=#000000;align=left;spacingLeft=5;" parent="gadget2" vertex="1"><mxGeometry x="400.0" y="0" width="400.0" height="20" as="geometry" /></mxCell><mxCell id="gadget2property1" value="S_dimension: None" style="fillColor=#ffffff;fontColor=#000000;align=left;spacingLeft=5;" parent="gadget2" vertex="1"><mxGeometry x="400.0" y="20" width="400.0" height="20" as="geometry" /></mxCell><mxCell id="gadget2property2" value="split_slices: true" style="fillColor=#ffffff;fontColor=#000000;align=left;spacingLeft=5;" parent="gadget2" vertex="1"><mxGeometry x="400.0" y="40" width="400.0" height="20" as="geometry" /></mxCell><mxCell id="arrow3" style="edgeStyle=orthogonalEdgeStyle;rounded=0;orthogonalLoop=1;jettySize=auto;html=1;exitX=0.5;exitY=1;exitDx=0;exitDy=0;entryX=0.5;entryY=0;entryDx=0;entryDy=0;" parent="1" source="gadget2" target="gadget3" edge="1"><mxGeometry relative="1" as="geometry" /></mxCell><mxCell id="gadget3" value="SimpleReconGadget&#10;(gadgetron_mricore)" parent="1" vertex="1" style="fillColor=#fff2cc;fontColor=#000000;align=center;"><mxGeometry y="320" height="40" width="800" as="geometry" /></mxCell><mxCell id="arrow4" style="edgeStyle=orthogonalEdgeStyle;rounded=0;orthogonalLoop=1;jettySize=auto;html=1;exitX=0.5;exitY=1;exitDx=0;exitDy=0;entryX=0.5;entryY=0;entryDx=0;entryDy=0;" parent="1" source="gadget3" target="gadget4" edge="1"><mxGeometry relative="1" as="geometry" /></mxCell><mxCell id="gadget4" value="ImageArraySplitGadget&#10;(gadgetron_mricore)" parent="1" vertex="1" style="fillColor=#fff2cc;fontColor=#000000;align=center;"><mxGeometry y="380" height="40" width="800" as="geometry" /></mxCell><mxCell id="arrow5" style="edgeStyle=orthogonalEdgeStyle;rounded=0;orthogonalLoop=1;jettySize=auto;html=1;exitX=0.5;exitY=1;exitDx=0;exitDy=0;entryX=0.5;entryY=0;entryDx=0;entryDy=0;" parent="1" source="gadget4" target="gadget5" edge="1"><mxGeometry relative="1" as="geometry" /></mxCell><mxCell id="gadget5" value="ExtractGadget&#10;(gadgetron_mricore)" parent="1" vertex="1" style="fillColor=#fff2cc;fontColor=#000000;align=center;"><mxGeometry y="440" height="40" width="800" as="geometry" /></mxCell><mxCell id="arrow6" style="edgeStyle=orthogonalEdgeStyle;rounded=0;orthogonalLoop=1;jettySize=auto;html=1;exitX=0.5;exitY=1;exitDx=0;exitDy=0;entryX=0.5;entryY=0;entryDx=0;entryDy=0;" parent="1" source="gadget5" target="gadget6" edge="1"><mxGeometry relative="1" as="geometry" /></mxCell><mxCell id="gadget6" value="ImageFinishGadget&#10;(gadgetron_mricore)" parent="1" vertex="1" style="fillColor=#fff2cc;fontColor=#000000;align=center;"><mxGeometry y="500" height="40" width="800" as="geometry" /></mxCell><mxCell id="writer0" value="MRIImageWriter&#10;(gadgetron_mricore)" style="fillColor=#f8cecc;fontColor=#000000;" parent="1" vertex="1"><mxGeometry y="560" width="800" height="40" as="geometry" /></mxCell></root></mxGraphModel>